<?xml version="1.0" encoding="UTF-8" standalone="no"?>
<!-- Uploaded to: SVG Repo, www.svgrepo.com, Generator: SVG Repo Mixer Tools -->

<svg
   fill="#000000"
   width="800px"
   height="800px"
   viewBox="0 0 24 24"
   version="1.2"
   id="svg1"
   sodipodi:docname="adjust-contrast-svgrepo-com.svg"
   inkscape:version="1.3 (0e150ed6c4, 2023-07-21)"
   xmlns:inkscape="http://www.inkscape.org/namespaces/inkscape"
   xmlns:sodipodi="http://sodipodi.sourceforge.net/DTD/sodipodi-0.dtd"
   xmlns="http://www.w3.org/2000/svg"
   xmlns:svg="http://www.w3.org/2000/svg">
  <defs
     id="defs1" />
  <sodipodi:namedview
     id="namedview1"
     pagecolor="#ffffff"
     bordercolor="#000000"
     borderopacity="0.25"
     inkscape:showpageshadow="2"
     inkscape:pageopacity="0.0"
     inkscape:pagecheckerboard="0"
     inkscape:deskcolor="#d1d1d1"
     inkscape:zoom="1.06"
     inkscape:cx="399.5283"
     inkscape:cy="400"
     inkscape:window-width="1920"
     inkscape:window-height="1052"
     inkscape:window-x="2560"
     inkscape:window-y="180"
     inkscape:window-maximized="1"
     inkscape:current-layer="svg1" />
  <g
     id="g1"
     transform="matrix(-1,0,0,1,24,0)">
    <path
       d="m 12,4 c -4.418,0 -8,3.582 -8,8 0,4.418 3.582,8 8,8 4.418,0 8,-3.582 8,-8 0,-4.418 -3.582,-8 -8,-8 z m 0,14 C 8.686,18 6,15.314 6,12 6,8.686 8.686,6 12,6 c 3.314,0 6,2.686 6,6 0,3.314 -2.686,6 -6,6 z M 12,7 v 10 c 2.757,0 5,-2.243 5,-5 0,-2.757 -2.243,-5 -5,-5 z"
       id="path1" />
  </g>
</svg>
