<?xml version="1.0" standalone="no"?>
<!DOCTYPE svg PUBLIC "-//W3C//DTD SVG 20010904//EN"
 "http://www.w3.org/TR/2001/REC-SVG-20010904/DTD/svg10.dtd">
<svg version="1.0" xmlns="http://www.w3.org/2000/svg"
 width="700.000000pt" height="700.000000pt" viewBox="0 0 700.000000 700.000000"
 preserveAspectRatio="xMidYMid meet">
<metadata>
Created by potrace 1.14, written by Peter Selinger 2001-2017
</metadata>
<g transform="translate(0.000000,700.000000) scale(0.100000,-0.100000)"
fill="#000000" stroke="none">
<path d="M3357 5828 c-735 -45 -1403 -434 -1808 -1051 -190 -289 -334 -682
-364 -992 -4 -38 -9 -79 -11 -90 -6 -28 -5 -330 0 -390 12 -118 18 -156 50
-317 4 -16 8 -40 11 -55 15 -74 113 -341 165 -448 147 -301 369 -585 615 -783
39 -31 72 -59 75 -62 37 -38 291 -191 410 -248 170 -80 441 -167 575 -185 22
-3 47 -8 55 -11 8 -2 42 -7 75 -11 33 -3 74 -8 90 -10 49 -7 335 -7 410 0 723
70 1355 450 1749 1051 137 211 275 525 311 713 2 13 6 30 9 39 3 9 8 33 11 52
3 19 8 42 10 50 6 20 12 62 20 130 4 30 8 69 10 85 5 42 6 353 1 390 -2 17 -7
62 -11 100 -4 39 -9 79 -11 90 -3 11 -9 44 -14 73 -14 84 -58 238 -100 352
-197 542 -591 993 -1110 1268 -361 193 -803 287 -1223 260z m433 -602 c377
-69 679 -225 946 -491 277 -275 444 -615 501 -1016 9 -69 9 -367 -1 -439 -32
-238 -127 -511 -236 -680 -17 -25 -33 -52 -37 -60 -36 -75 -238 -299 -359
-397 -122 -99 -345 -232 -434 -258 -14 -4 -29 -11 -35 -15 -32 -24 -257 -82
-410 -107 -133 -21 -461 -4 -610 30 -449 106 -834 373 -1081 752 -145 223
-232 461 -271 745 -10 70 -10 369 0 434 19 118 39 210 67 296 34 107 97 258
116 281 8 8 14 21 14 27 0 14 95 162 155 240 94 125 249 272 400 380 63 45
264 152 315 167 14 4 30 11 35 15 32 26 302 93 420 106 33 3 61 7 63 9 11 11
360 -4 442 -19z"/>
<path d="M3387 4954 c-1 -1 -27 -4 -57 -7 -330 -36 -642 -191 -883 -442 -165
-170 -329 -467 -362 -654 -3 -19 -7 -37 -9 -40 -17 -27 -33 -220 -31 -356 8
-369 162 -723 431 -991 249 -248 591 -399 947 -419 l77 -5 0 1459 0 1458 -55
0 c-31 -1 -57 -2 -58 -3z"/>
</g>
</svg>
